<?xml version="1.0" encoding="us-ascii" standalone="no"?><svg xmlns="http://www.w3.org/2000/svg" xmlns:xlink="http://www.w3.org/1999/xlink" contentStyleType="text/css" height="389px" preserveAspectRatio="none" style="width:676px;height:389px;background:#FFFFFF;" version="1.1" viewBox="0 0 676 389" width="676px" zoomAndPan="magnify"><defs/><g><text fill="#000000" font-family="sans-serif" font-size="14" font-weight="bold" lengthAdjust="spacing" textLength="211" x="225.5" y="25.1074">Simple Factory Design Pattern</text><!--class AbstractTV--><g id="elem_AbstractTV"><rect codeLine="5" fill="#F1F1F1" height="85.2422" id="AbstractTV" rx="2.5" ry="2.5" style="stroke:#181818;stroke-width:0.5;" width="102" x="376.5" y="56.1211"/><ellipse cx="391.5" cy="72.1211" fill="#A9DCDF" rx="11" ry="11" style="stroke:#181818;stroke-width:1.0;"/><path d="M393.6875,73.8867 L389.5469,73.8867 L389.125,74.918 L389.5469,74.918 Q390.1563,74.918 390.4219,75.1523 Q390.6875,75.3867 390.6875,75.7773 Q390.6875,76.1523 390.4219,76.3867 Q390.1563,76.6211 389.5469,76.6211 L387.25,76.6211 Q386.6406,76.6211 386.3906,76.3867 Q386.125,76.1523 386.125,75.7617 Q386.125,75.3867 386.4063,75.1523 Q386.6719,74.9023 387.2969,74.918 L389.9688,68.2617 L388.8594,68.2617 Q388.25,68.2617 387.9844,68.0273 Q387.7188,67.793 387.7188,67.4023 Q387.7188,67.0273 387.9844,66.793 Q388.25,66.5586 388.8594,66.5586 L392.5313,66.5586 L395.9219,74.918 Q396.5156,74.918 396.7031,75.0586 Q397.0938,75.3242 397.0938,75.7773 Q397.0938,76.1523 396.8281,76.3867 Q396.5781,76.6211 395.9688,76.6211 L393.6719,76.6211 Q393.0625,76.6211 392.7969,76.3867 Q392.5313,76.1523 392.5313,75.7617 Q392.5313,75.3867 392.7969,75.1523 Q393.0625,74.918 393.6719,74.918 L394.0938,74.918 L393.6875,73.8867 Z M392.9688,72.1836 L391.6094,68.8086 L390.2344,72.1836 L392.9688,72.1836 Z " fill="#000000"/><text fill="#000000" font-family="sans-serif" font-size="14" font-style="italic" lengthAdjust="spacing" textLength="70" x="405.5" y="77.918">AbstractTV</text><line style="stroke:#181818;stroke-width:0.5;" x1="377.5" x2="477.5" y1="88.1211" y2="88.1211"/><line style="stroke:#181818;stroke-width:0.5;" x1="377.5" x2="477.5" y1="96.1211" y2="96.1211"/><text fill="#000000" font-family="sans-serif" font-size="14" lengthAdjust="spacing" textLength="59" x="382.5" y="115.2285">turn_on()</text><text fill="#000000" font-family="sans-serif" font-size="14" lengthAdjust="spacing" textLength="59" x="382.5" y="133.8496">turn_off()</text></g><!--class TVFactory--><g id="elem_TVFactory"><rect codeLine="10" fill="#F1F1F1" height="103.8633" id="TVFactory" rx="2.5" ry="2.5" style="stroke:#181818;stroke-width:0.5;" width="179" x="162" y="46.6211"/><ellipse cx="214.25" cy="62.6211" fill="#ADD1B2" rx="11" ry="11" style="stroke:#181818;stroke-width:1.0;"/><path d="M217.0156,58.4961 Q217.1719,58.2773 217.3594,58.168 Q217.5469,58.0586 217.7656,58.0586 Q218.1406,58.0586 218.375,58.3242 Q218.6094,58.5742 218.6094,59.1836 L218.6094,60.6367 Q218.6094,61.2461 218.375,61.5117 Q218.1406,61.7773 217.7656,61.7773 Q217.4219,61.7773 217.2188,61.5742 Q217.0156,61.3867 216.9063,60.8711 Q216.8594,60.5117 216.6719,60.3242 Q216.3438,59.9492 215.7344,59.7305 Q215.125,59.5117 214.5,59.5117 Q213.7344,59.5117 213.0938,59.8398 Q212.4688,60.168 211.9688,60.918 Q211.4844,61.668 211.4844,62.6992 L211.4844,63.793 Q211.4844,65.0273 212.375,65.8555 Q213.2656,66.668 214.8594,66.668 Q215.7969,66.668 216.4531,66.418 Q216.8438,66.2617 217.2656,65.8242 Q217.5313,65.5586 217.6719,65.4805 Q217.8281,65.4023 218.0313,65.4023 Q218.3594,65.4023 218.6094,65.668 Q218.875,65.918 218.875,66.2617 Q218.875,66.6055 218.5313,67.0117 Q218.0313,67.5898 217.2344,67.918 Q216.1563,68.3711 214.8594,68.3711 Q213.3438,68.3711 212.1406,67.7461 Q211.1563,67.2461 210.4688,66.1836 Q209.7813,65.1055 209.7813,63.8242 L209.7813,62.668 Q209.7813,61.3398 210.3906,60.1992 Q211.0156,59.043 212.1094,58.4336 Q213.2031,57.8086 214.4375,57.8086 Q215.1719,57.8086 215.8125,57.9805 Q216.4688,58.1367 217.0156,58.4961 Z " fill="#000000"/><text fill="#000000" font-family="sans-serif" font-size="14" lengthAdjust="spacing" textLength="66" x="234.75" y="68.418">TVFactory</text><line style="stroke:#181818;stroke-width:0.5;" x1="163" x2="340" y1="78.6211" y2="78.6211"/><text fill="#000000" font-family="sans-serif" font-size="14" lengthAdjust="spacing" textLength="131" x="168" y="97.7285">tv_sets:dict[str:class]</text><line style="stroke:#181818;stroke-width:0.5;" x1="163" x2="340" y1="105.2422" y2="105.2422"/><text fill="#000000" font-family="sans-serif" font-size="14" lengthAdjust="spacing" textLength="167" x="168" y="124.3496">create_instance(tv_brand)</text><text fill="#000000" font-family="sans-serif" font-size="14" lengthAdjust="spacing" textLength="63" x="168" y="142.9707">load_tvs()</text></g><!--class LGTV--><g id="elem_LGTV"><rect codeLine="16" fill="#F1F1F1" height="85.2422" id="LGTV" rx="2.5" ry="2.5" style="stroke:#181818;stroke-width:0.5;" width="71" x="333" y="210.6211"/><ellipse cx="348.9" cy="226.6211" fill="#ADD1B2" rx="11" ry="11" style="stroke:#181818;stroke-width:1.0;"/><path d="M351.6656,222.4961 Q351.8219,222.2773 352.0094,222.168 Q352.1969,222.0586 352.4156,222.0586 Q352.7906,222.0586 353.025,222.3242 Q353.2594,222.5742 353.2594,223.1836 L353.2594,224.6367 Q353.2594,225.2461 353.025,225.5117 Q352.7906,225.7773 352.4156,225.7773 Q352.0719,225.7773 351.8688,225.5742 Q351.6656,225.3867 351.5563,224.8711 Q351.5094,224.5117 351.3219,224.3242 Q350.9938,223.9492 350.3844,223.7305 Q349.775,223.5117 349.15,223.5117 Q348.3844,223.5117 347.7438,223.8398 Q347.1188,224.168 346.6188,224.918 Q346.1344,225.668 346.1344,226.6992 L346.1344,227.793 Q346.1344,229.0273 347.025,229.8555 Q347.9156,230.668 349.5094,230.668 Q350.4469,230.668 351.1031,230.418 Q351.4938,230.2617 351.9156,229.8242 Q352.1813,229.5586 352.3219,229.4805 Q352.4781,229.4023 352.6813,229.4023 Q353.0094,229.4023 353.2594,229.668 Q353.525,229.918 353.525,230.2617 Q353.525,230.6055 353.1813,231.0117 Q352.6813,231.5898 351.8844,231.918 Q350.8063,232.3711 349.5094,232.3711 Q347.9938,232.3711 346.7906,231.7461 Q345.8063,231.2461 345.1188,230.1836 Q344.4313,229.1055 344.4313,227.8242 L344.4313,226.668 Q344.4313,225.3398 345.0406,224.1992 Q345.6656,223.043 346.7594,222.4336 Q347.8531,221.8086 349.0875,221.8086 Q349.8219,221.8086 350.4625,221.9805 Q351.1188,222.1367 351.6656,222.4961 Z " fill="#000000"/><text fill="#000000" font-family="sans-serif" font-size="14" lengthAdjust="spacing" textLength="37" x="363.1" y="232.418">LGTV</text><line style="stroke:#181818;stroke-width:0.5;" x1="334" x2="403" y1="242.6211" y2="242.6211"/><line style="stroke:#181818;stroke-width:0.5;" x1="334" x2="403" y1="250.6211" y2="250.6211"/><text fill="#000000" font-family="sans-serif" font-size="14" lengthAdjust="spacing" textLength="59" x="339" y="269.7285">turn_on()</text><text fill="#000000" font-family="sans-serif" font-size="14" lengthAdjust="spacing" textLength="59" x="339" y="288.3496">turn_off()</text></g><!--class PhillipsTV--><g id="elem_PhillipsTV"><rect codeLine="21" fill="#F1F1F1" height="85.2422" id="PhillipsTV" rx="2.5" ry="2.5" style="stroke:#181818;stroke-width:0.5;" width="94" x="439.5" y="210.6211"/><ellipse cx="454.5" cy="226.6211" fill="#ADD1B2" rx="11" ry="11" style="stroke:#181818;stroke-width:1.0;"/><path d="M457.2656,222.4961 Q457.4219,222.2773 457.6094,222.168 Q457.7969,222.0586 458.0156,222.0586 Q458.3906,222.0586 458.625,222.3242 Q458.8594,222.5742 458.8594,223.1836 L458.8594,224.6367 Q458.8594,225.2461 458.625,225.5117 Q458.3906,225.7773 458.0156,225.7773 Q457.6719,225.7773 457.4688,225.5742 Q457.2656,225.3867 457.1563,224.8711 Q457.1094,224.5117 456.9219,224.3242 Q456.5938,223.9492 455.9844,223.7305 Q455.375,223.5117 454.75,223.5117 Q453.9844,223.5117 453.3438,223.8398 Q452.7188,224.168 452.2188,224.918 Q451.7344,225.668 451.7344,226.6992 L451.7344,227.793 Q451.7344,229.0273 452.625,229.8555 Q453.5156,230.668 455.1094,230.668 Q456.0469,230.668 456.7031,230.418 Q457.0938,230.2617 457.5156,229.8242 Q457.7813,229.5586 457.9219,229.4805 Q458.0781,229.4023 458.2813,229.4023 Q458.6094,229.4023 458.8594,229.668 Q459.125,229.918 459.125,230.2617 Q459.125,230.6055 458.7813,231.0117 Q458.2813,231.5898 457.4844,231.918 Q456.4063,232.3711 455.1094,232.3711 Q453.5938,232.3711 452.3906,231.7461 Q451.4063,231.2461 450.7188,230.1836 Q450.0313,229.1055 450.0313,227.8242 L450.0313,226.668 Q450.0313,225.3398 450.6406,224.1992 Q451.2656,223.043 452.3594,222.4336 Q453.4531,221.8086 454.6875,221.8086 Q455.4219,221.8086 456.0625,221.9805 Q456.7188,222.1367 457.2656,222.4961 Z " fill="#000000"/><text fill="#000000" font-family="sans-serif" font-size="14" lengthAdjust="spacing" textLength="62" x="468.5" y="232.418">PhillipsTV</text><line style="stroke:#181818;stroke-width:0.5;" x1="440.5" x2="532.5" y1="242.6211" y2="242.6211"/><line style="stroke:#181818;stroke-width:0.5;" x1="440.5" x2="532.5" y1="250.6211" y2="250.6211"/><text fill="#000000" font-family="sans-serif" font-size="14" lengthAdjust="spacing" textLength="59" x="445.5" y="269.7285">turn_on()</text><text fill="#000000" font-family="sans-serif" font-size="14" lengthAdjust="spacing" textLength="59" x="445.5" y="288.3496">turn_off()</text></g><g id="elem_GMN6"><path d="M6,76.1211 L6,120.7031 A0,0 0 0 0 6,120.7031 L127,120.7031 A0,0 0 0 0 127,120.7031 L127,102.6211 L161.68,98.6211 L127,94.6211 L127,86.1211 L117,76.1211 L6,76.1211 A0,0 0 0 0 6,76.1211 " fill="#FEFFDD" style="stroke:#181818;stroke-width:0.5;"/><path d="M117,76.1211 L117,86.1211 L127,86.1211 L117,76.1211 " fill="#FEFFDD" style="stroke:#181818;stroke-width:0.5;"/><text fill="#000000" font-family="sans-serif" font-size="13" lengthAdjust="spacing" textLength="100" x="12" y="95.1494">Create and return</text><text fill="#000000" font-family="sans-serif" font-size="13" lengthAdjust="spacing" textLength="96" x="12" y="112.4404">product instance</text></g><g id="elem_GMN9"><path d="M514,67.6211 L514,94.6211 L478.75,98.6211 L514,102.6211 L514,129.4941 A0,0 0 0 0 514,129.4941 L669,129.4941 A0,0 0 0 0 669,129.4941 L669,77.6211 L659,67.6211 L514,67.6211 A0,0 0 0 0 514,67.6211 " fill="#FEFFDD" style="stroke:#181818;stroke-width:0.5;"/><path d="M659,67.6211 L659,77.6211 L669,77.6211 L659,67.6211 " fill="#FEFFDD" style="stroke:#181818;stroke-width:0.5;"/><text fill="#000000" font-family="sans-serif" font-size="13" lengthAdjust="spacing" textLength="88" x="520" y="86.6494">Abstract class.</text><text fill="#000000" font-family="sans-serif" font-size="13" lengthAdjust="spacing" textLength="134" x="520" y="103.9404">Stipulates the methods</text><text fill="#000000" font-family="sans-serif" font-size="13" lengthAdjust="spacing" textLength="107" x="520" y="121.2314">to be implemented</text></g><g id="elem_N1"><path d="M366.5,355.6211 L366.5,382.9121 L488.5,382.9121 L488.5,365.6211 L478.5,355.6211 L366.5,355.6211 " fill="#FEFFDD" style="stroke:#181818;stroke-width:0.5;"/><path d="M478.5,355.6211 L478.5,365.6211 L488.5,365.6211 L478.5,355.6211 " fill="#FEFFDD" style="stroke:#181818;stroke-width:1.0;"/><text fill="#000000" font-family="sans-serif" font-size="13" lengthAdjust="spacing" textLength="101" x="372.5" y="374.6494">Concrete classes</text></g><!--reverse link AbstractTV to LGTV--><g id="link_AbstractTV_LGTV"><path codeLine="30" d="M404.8823,158.0774 C396.5523,179.5974 392.92,188.9911 384.6,210.5011 " fill="none" id="AbstractTV-backto-LGTV" style="stroke:#181818;stroke-width:1.0;stroke-dasharray:7.0,7.0;"/><polygon fill="none" points="411.38,141.2911,399.2869,155.9115,410.4778,160.2433,411.38,141.2911" style="stroke:#181818;stroke-width:1.0;"/></g><!--reverse link AbstractTV to PhillipsTV--><g id="link_AbstractTV_PhillipsTV"><path codeLine="31" d="M450.1177,158.0774 C458.4477,179.5974 462.08,188.9911 470.4,210.5011 " fill="none" id="AbstractTV-backto-PhillipsTV" style="stroke:#181818;stroke-width:1.0;stroke-dasharray:7.0,7.0;"/><polygon fill="none" points="443.62,141.2911,444.5222,160.2433,455.7131,155.9115,443.62,141.2911" style="stroke:#181818;stroke-width:1.0;"/></g><!--link TVFactory to AbstractTV--><g id="link_TVFactory_AbstractTV"><path codeLine="32" d="M341.22,98.6211 C352.9,98.6211 346.59,98.6211 358.27,98.6211 " fill="none" id="TVFactory-to-AbstractTV" style="stroke:#181818;stroke-width:1.0;stroke-dasharray:7.0,7.0;"/><polygon fill="none" points="376.27,98.6211,358.27,92.6211,358.27,104.6211,376.27,98.6211" style="stroke:#181818;stroke-width:1.0;"/></g><!--link PhillipsTV to N1--><g id="link_PhillipsTV_N1"><path codeLine="33" d="M464.87,295.9211 C453.95,317.0211 441.48,341.1111 434.06,355.4511 " fill="none" id="PhillipsTV-N1" style="stroke:#181818;stroke-width:1.0;stroke-dasharray:7.0,7.0;"/></g><!--link LGTV to N1--><g id="link_LGTV_N1"><path codeLine="34" d="M390.13,295.9211 C401.05,317.0211 413.52,341.1111 420.94,355.4511 " fill="none" id="LGTV-N1" style="stroke:#181818;stroke-width:1.0;stroke-dasharray:7.0,7.0;"/></g><!--SRC=[bL71QiCm3BtxAqGlwmvBsJM7mUZOBcCKMdfPHt1ZfJ4uih6KmjZsxtETTWqCnkgB9QJtzFHqrOe4BcUpu3H9txcYzjsiTfhvnbYzYxfJIgmuXANjGleUTIq-liC3ijqHBBG8Hb9ARrbYga46m_qnNQtXGq5wqaUgF4slHrdJfFHBgG6oMf-uZuXznIXS6blBQs8hSzjRhjKHjM1bYKLJZTFKkusQpC3kl3QLx7dC_lnqWPH5QvspWVy58Iy83Xi1tvoNA66UDK9I1H4Fa0s5w4sVF3hf7h3HxjeCFfjM_iI3dyM6bc93xn8ZWxG87Khh3Mz8F6mHyd4w944pa4xcdf9BASe4o1FG32-tIcKdYZuKdtUZYMgqy-_Y-JP5Lli7jZWC6MRay1i0]--></g></svg>